# xmcd
#
# Track frame offsets:
#	150
#	12104
#	28239
#	41586
#	54613
#	74418
#	96293
#	108827
#	141810
#	171485
#	193065
#	216090
#	246408
#	278869
#	292398
#
# Disc length: 4304 seconds
#
# Revision: 1
# Processed by: cddbd v1.5.1PL2 Copyright (c) Steve Scherf et al.
# Submitted via: audiograbber 1.83.01
#
DISCID=f010ce0f
DTITLE=Ronnie Earl - The Best Of Ronnie Earl - Heart And Soul
DYEAR=2006
DGENRE=Blues
TTITLE0=You Give Me Nothing But The Blues
TTITLE1=I Want To Shout About It
TTITLE2=Ronnie Johnnie
TTITLE3=I Cried My Eyes Out
TTITLE4=I Smell Trouble
TTITLE5=Catfish Blues
TTITLE6=Soul Searchin'
TTITLE7=A Soul That's Been Abused
TTITLE8=Little Johnny Lee
TTITLE9=Ships Passing In The Night
TTITLE10=Blue Guitar
TTITLE11=What Have I Done Wrong
TTITLE12=Abandoned
TTITLE13=Off The Hook
TTITLE14=Drown In My Own Tears
EXTD=
EXTT0=
EXTT1=
EXTT2=
EXTT3=
EXTT4=
EXTT5=
EXTT6=
EXTT7=
EXTT8=
EXTT9=
EXTT10=
EXTT11=
EXTT12=
EXTT13=
EXTT14=
PLAYORDER=
